<svg width="100" height="100" viewBox="0 0 100 100" fill="none" xmlns="http://www.w3.org/2000/svg">
<path d="M10 46C7.79086 46 6 47.7909 6 50C6 52.2091 7.79086 54 10 54V46ZM92.8284 52.8284C94.3905 51.2663 94.3905 48.7337 92.8284 47.1716L67.3726 21.7157C65.8105 20.1536 63.2778 20.1536 61.7157 21.7157C60.1536 23.2778 60.1536 25.8105 61.7157 27.3726L84.3431 50L61.7157 72.6274C60.1536 74.1895 60.1536 76.7222 61.7157 78.2843C63.2778 79.8464 65.8105 79.8464 67.3726 78.2843L92.8284 52.8284ZM10 54H90V46H10V54Z" fill="#FF0467"/>
</svg>
