<svg xmlns="http://www.w3.org/2000/svg" xmlns:xlink="http://www.w3.org/1999/xlink" width="151.153" height="23.483" viewBox="0 0 151.153 23.483"><defs><linearGradient id="a" x1="0.5" x2="0.5" y2="1" gradientUnits="objectBoundingBox"><stop offset="0" stop-color="#f4cc3a"/><stop offset="0.537" stop-color="#f26419"/><stop offset="1" stop-color="#e84855"/></linearGradient></defs><g transform="translate(-121.347 -2610)"><text transform="translate(121.347 2616)" fill="#fff" font-size="10" font-family="Hack-Regular, Hack"><tspan x="0" y="10">powered by</tspan></text><g transform="translate(187.788 2609.583)"><path d="M48.005,13.3a4.449,4.449,0,0,1-3.663-1.491,5.921,5.921,0,0,1,0-7.164A4.421,4.421,0,0,1,48.005,3.13a4.422,4.422,0,0,1,3.664,1.513,5.921,5.921,0,0,1,0,7.164A4.451,4.451,0,0,1,48.005,13.3Zm-.011-8.062a2.21,2.21,0,0,0-1.681.773,4.447,4.447,0,0,0,0,4.42,2,2,0,0,0,1.579.781l.1,0c.03,0,.065,0,.105,0a1.986,1.986,0,0,0,1.573-.781,4.481,4.481,0,0,0,0-4.42A2.21,2.21,0,0,0,47.995,5.237ZM14.858,13.3a4.451,4.451,0,0,1-3.664-1.491,5.921,5.921,0,0,1,0-7.164A4.422,4.422,0,0,1,14.858,3.13a4.42,4.42,0,0,1,3.663,1.513,5.921,5.921,0,0,1,0,7.164A4.449,4.449,0,0,1,14.858,13.3Zm-.011-8.062a2.211,2.211,0,0,0-1.681.773,4.446,4.446,0,0,0,0,4.42,2,2,0,0,0,1.579.781l.1,0c.03,0,.065,0,.105,0a1.986,1.986,0,0,0,1.573-.781,4.481,4.481,0,0,0,0-4.42A2.211,2.211,0,0,0,14.846,5.237ZM5.1,13.223a3.4,3.4,0,0,1-1.733-.476,3.084,3.084,0,0,1-.662-.63.149.149,0,0,0-.265.091v.384a.374.374,0,0,1-.373.373H.373A.374.374,0,0,1,0,12.593V.469A.374.374,0,0,1,.373.1H2.11a.374.374,0,0,1,.373.373V1.3q0,.51,0,1.019c0,.622,0,1.343,0,2.038a.111.111,0,0,0,.072.1.111.111,0,0,0,.123-.032,4.049,4.049,0,0,1,.846-.77,3.087,3.087,0,0,1,1.587-.44l.127,0c.053,0,.106,0,.16,0A3.507,3.507,0,0,1,8.179,4.582a5.525,5.525,0,0,1,1.062,3.5,6.108,6.108,0,0,1-1.05,3.681A3.4,3.4,0,0,1,5.4,13.222l-.134,0C5.207,13.222,5.153,13.223,5.1,13.223ZM4.413,5.4A1.857,1.857,0,0,0,2.666,6.635a4.611,4.611,0,0,0-.262,1.7,3.532,3.532,0,0,0,.543,2.029,1.852,1.852,0,0,0,1.53.808c.04,0,.08,0,.122,0H4.66a1.7,1.7,0,0,0,1.434-.779,3.531,3.531,0,0,0,.533-2.045,4.606,4.606,0,0,0-.262-1.679A1.822,1.822,0,0,0,4.628,5.4l-.1,0C4.49,5.4,4.452,5.4,4.413,5.4Zm37.673,7.566H40.167a.3.3,0,0,1-.3-.3V3.74a.3.3,0,0,1,.3-.3h1.919a.3.3,0,0,1,.3.3v8.922A.3.3,0,0,1,42.086,12.966Zm-4.019,0H36.026a.3.3,0,0,1-.3-.3v-2a.3.3,0,0,1,.3-.3h2.041a.3.3,0,0,1,.3.3v2a.3.3,0,0,1-.3.3Zm-5.788,0H30.6a.418.418,0,0,1-.418-.417v-8.7a.42.42,0,0,1,.418-.417h1.544a.421.421,0,0,1,.295.122.415.415,0,0,1,.122.3q0,.425,0,.851a.112.112,0,0,0,.112.113.113.113,0,0,0,.1-.052,4.18,4.18,0,0,1,.8-.971c.033-.028.073-.06.114-.089a2.765,2.765,0,0,1,1.583-.5h.038a.416.416,0,0,1,.416.418v1.7a.418.418,0,0,1-.417.417h-.028c-.105-.006-.191-.008-.272-.008a2.075,2.075,0,0,0-2.02.979,3.834,3.834,0,0,0-.289,1.7v4.138A.418.418,0,0,1,32.279,12.966Zm-3.515-.026H26.828a.307.307,0,0,1-.215-.089.3.3,0,0,1-.089-.215V7.143A2.562,2.562,0,0,0,26.261,5.9a1.315,1.315,0,0,0-1.294-.665c-.037,0-.075,0-.112,0a1.776,1.776,0,0,0-1.387.664,3.034,3.034,0,0,0-.512,1.884v4.786a.374.374,0,0,1-.373.373H20.847a.373.373,0,0,1-.373-.373V.469a.371.371,0,0,1,.109-.264A.376.376,0,0,1,20.847.1h1.736a.374.374,0,0,1,.373.373V4.3a.111.111,0,0,0,.074.105.113.113,0,0,0,.038.007.111.111,0,0,0,.086-.042,2.868,2.868,0,0,1,1.057-.879,3.574,3.574,0,0,1,1.49-.328h.057a4.1,4.1,0,0,1,1.481.276,2.92,2.92,0,0,1,1.356,1.1,2.434,2.434,0,0,1,.385.96,13.674,13.674,0,0,1,.087,1.84v5.292A.3.3,0,0,1,28.764,12.94ZM42.086,2.3H40.167a.3.3,0,0,1-.3-.3V.3a.3.3,0,0,1,.3-.3h1.919a.3.3,0,0,1,.3.3V2A.3.3,0,0,1,42.086,2.3Z" transform="translate(31.336 5.315)" fill="#fff" stroke="rgba(0,0,0,0)" stroke-miterlimit="10" stroke-width="1"/><path d="M11.759,23.483h0a11.7,11.7,0,0,1-3.695-.6,9.819,9.819,0,0,1-3.219-1.631.221.221,0,0,1-.017-.317,4.027,4.027,0,0,0,.429-.47.22.22,0,0,1,.31-.057,10.67,10.67,0,0,0,12.343.013.214.214,0,0,1,.308.054,1.85,1.85,0,0,0,.39.464.219.219,0,0,1-.015.343A11.652,11.652,0,0,1,11.759,23.483Zm-.006-2.926h-.018a.551.551,0,0,1,0-1.1h.017a.551.551,0,0,1,0,1.1Zm1.882-.211a.221.221,0,0,1-.22-.238,1.656,1.656,0,0,0-.071-.586.214.214,0,0,1,.162-.271,7.827,7.827,0,0,0,5.161-4.1A7.708,7.708,0,0,0,13.506,4.238a.214.214,0,0,1-.162-.27,1.665,1.665,0,0,0,.071-.579.219.219,0,0,1,.218-.235.214.214,0,0,1,.049.006,8.617,8.617,0,0,1,6.193,5.169,8.81,8.81,0,0,1-6.2,12.013A.22.22,0,0,1,13.635,20.346Zm-3.766,0a.217.217,0,0,1-.044,0,8.8,8.8,0,0,1,0-17.183.218.218,0,0,1,.048-.005.219.219,0,0,1,.22.234,1.667,1.667,0,0,0,.071.58.213.213,0,0,1-.162.27A7.739,7.739,0,0,0,4.836,15.153,7.828,7.828,0,0,0,10,19.251a.215.215,0,0,1,.141.1.219.219,0,0,1,.022.171,1.672,1.672,0,0,0-.071.586.218.218,0,0,1-.074.182A.22.22,0,0,1,9.869,20.346Zm9.787-.131a.551.551,0,0,1-.388-.941l.01-.011a.551.551,0,0,1,.779.779l-.013.013A.547.547,0,0,1,19.656,20.215Zm-15.837,0a.551.551,0,0,1-.291-.083.545.545,0,0,1-.176-.176.551.551,0,1,1,.468.26Zm-1.426-1.5h-.01a.222.222,0,0,1-.155-.075A9.832,9.832,0,0,1,.6,15.419,11.715,11.715,0,0,1,2.2,4.891a.215.215,0,0,1,.167-.09h.011a.22.22,0,0,1,.165.075A1.853,1.853,0,0,0,3,5.266a.213.213,0,0,1,.054.308,10.682,10.682,0,0,0,.013,12.342.217.217,0,0,1,.038.167.22.22,0,0,1-.094.143,3.924,3.924,0,0,0-.47.429A.223.223,0,0,1,2.393,18.713Zm18.715-.03h0a.218.218,0,0,1-.166-.075,1.858,1.858,0,0,0-.464-.39.213.213,0,0,1-.055-.308A10.68,10.68,0,0,0,20.41,5.568a.22.22,0,0,1,.057-.31,4.027,4.027,0,0,0,.47-.429.224.224,0,0,1,.15-.059H21.1a.22.22,0,0,1,.155.075,9.817,9.817,0,0,1,1.631,3.219,11.713,11.713,0,0,1-1.6,10.527.218.218,0,0,1-.168.091ZM11.742,15.41a3.669,3.669,0,1,1,3.669-3.669A3.673,3.673,0,0,1,11.742,15.41ZM3.818,4.378a.551.551,0,0,1-.391-.939l.013-.013a.551.551,0,0,1,.779.779l-.011.011A.545.545,0,0,1,3.818,4.378Zm15.837,0a.561.561,0,0,1-.3-.086h0l0,0a1.074,1.074,0,0,0-.075-.08A1.1,1.1,0,0,0,19.2,4.13h0l0,0a.552.552,0,0,1,.462-.852.553.553,0,0,1,.533.408.553.553,0,0,1-.143.532A.559.559,0,0,1,19.655,4.375Zm-7.9-.341h-.015a.55.55,0,1,1,0-1.1h.018a.551.551,0,0,1,0,1.1Zm6.291-.92h0a.216.216,0,0,1-.127-.041A10.672,10.672,0,0,0,5.573,3.06a.211.211,0,0,1-.129.043.219.219,0,0,1-.037,0,.214.214,0,0,1-.142-.094,1.853,1.853,0,0,0-.391-.464A.219.219,0,0,1,4.8,2.367.215.215,0,0,1,4.89,2.2,11.717,11.717,0,0,1,15.419.6a9.833,9.833,0,0,1,3.219,1.631.22.22,0,0,1,.016.317,3.923,3.923,0,0,0-.429.47.22.22,0,0,1-.143.094A.224.224,0,0,1,18.044,3.114Z" transform="translate(0 0.417)" fill="url(#a)"/></g></g></svg>