<svg xmlns="http://www.w3.org/2000/svg" width="66.006" height="65.998" viewBox="0 0 66.006 65.998"><path d="M1060.534-97.708A32.929,32.929,0,0,1,1093.5-64.619a33.018,33.018,0,0,1-32.975,32.909,33.163,33.163,0,0,1-33.03-33.128A33.087,33.087,0,0,1,1060.534-97.708Zm-.141,46.973c4.462,0,8.925.051,13.386-.016a6.763,6.763,0,0,0,6.842-6.889q.064-7.008,0-14.018a6.832,6.832,0,0,0-7.1-7.088q-12.96-.072-25.922,0a6.93,6.93,0,0,0-7.235,7.033c-.128,4.669-.134,9.347.008,14.016.128,4.207,3.075,6.927,7.276,6.961C1051.895-50.7,1056.144-50.731,1060.393-50.735Z" transform="translate(-1027.491 97.708)" fill="#ff0467"/><path d="M19.972,25.812,38.261,40.023,57.375,25.812" transform="translate(-5.671 -7.024)" fill="none" stroke="#ff0467" stroke-width="4"/></svg>