<svg xmlns="http://www.w3.org/2000/svg" width="67" height="67" viewBox="0 0 67 67"><path d="M1859.584-54.548c2.118-.553,4.043-.892,5.854-1.559,6.25-2.3,8.7-7.322,9.114-13.734.252-3.889-.416-7.491-2.916-10.6-.248-.309-.142-.937-.159-1.419-.079-2.326-.1-4.655-.232-6.977a1.265,1.265,0,0,0-1.822-1.259c-2.281.853-4.5,1.89-6.771,2.759a4.534,4.534,0,0,1-2.376.37,34.319,34.319,0,0,0-14.446.065,3.617,3.617,0,0,1-1.951-.322c-2.312-.919-4.573-1.977-6.9-2.855-1.046-.395-1.832.151-1.907,1.337a57.781,57.781,0,0,0-.214,6.522,3.423,3.423,0,0,1-.56,2.421c-4.635,6.588-2.9,17.7,3.487,22.072a18.053,18.053,0,0,0,4.3,2.006,40.573,40.573,0,0,0,4.379,1.03c-.512,1.367-1,2.772-1.58,4.136a1.692,1.692,0,0,1-.9.722c-3.277,1.321-6.377.289-8.506-2.66a13.912,13.912,0,0,0-2.9-3.157,7.18,7.18,0,0,0-3.02-.8,1.2,1.2,0,0,0-.954.517c-.1.162.124.764.356.91,2.586,1.624,3.7,4.317,5.094,6.887,1.517,2.8,4.347,3.228,7.2,3.23,1.1,0,2.208-.152,3.511-.251,0,2.193.078,4.228-.027,6.252-.072,1.392-1.168,2.04-2.6,1.381a45.653,45.653,0,0,1-8.019-4.168c-10.711-7.83-15.75-18.708-14.249-32.029,1.567-13.9,9.158-23.708,22.091-28.483,19.988-7.38,41.092,5.822,44.289,27.409,2.349,15.864-7,31.953-21.582,37.131-2.333.829-3.13.263-3.136-2.263,0-2.095.017-4.19.044-6.285C1861.6-49.151,1861.651-52.094,1859.584-54.548Z" transform="translate(-1819.597 104.261)" fill="#ff0467"/></svg>