<svg xmlns="http://www.w3.org/2000/svg" width="67" height="66.998" viewBox="0 0 67 66.998"><path d="M1647.965-97.708c18.92.138,33.56,15.188,33.394,34.329-.155,17.944-15.591,32.858-33.81,32.667a33.521,33.521,0,0,1-33.188-34.155C1614.49-82.94,1629.737-97.841,1647.965-97.708Zm-.124,53.35v.007c4.39,0,8.781.04,13.171-.012a6.535,6.535,0,0,0,6.852-6.755q.11-13.149,0-26.3a6.583,6.583,0,0,0-6.911-6.708q-13.063-.044-26.127,0c-4.017.012-6.913,2.66-6.959,6.66q-.153,13.256,0,26.514c.051,3.928,2.878,6.53,6.8,6.579C1639.058-44.316,1643.449-44.358,1647.84-44.358Z" transform="translate(-1614.36 97.709)" fill="#ff0467"/><path d="M1693.42-28.656a10.175,10.175,0,0,1-10.1,10.114,10.186,10.186,0,0,1-9.959-10,10.1,10.1,0,0,1,9.973-10.229A10.108,10.108,0,0,1,1693.42-28.656Z" transform="translate(-1649.888 62.141)" fill="#ff0467"/></svg>