<svg xmlns="http://www.w3.org/2000/svg" width="67" height="68.454" viewBox="0 0 67 68.454"><g transform="translate(0 1.454)"><path d="M1223.266,129.292a33.5,33.5,0,1,1,33.668,33.442A33.33,33.33,0,0,1,1223.266,129.292Zm44.646,23.182q.079-.259.156-.519c5.4.011,9.556-2.813,11.121-7.549.774-2.344.295-3.552-1.859-4.539-2.217-1.017-4.473-1.951-6.669-3.009-1.983-.955-3.531-.79-4.661,1.3a26.455,26.455,0,0,1-1.638,2.27,2.87,2.87,0,0,1-3.883,1.144,28.881,28.881,0,0,1-13.375-10.792c-1.862-2.7-1.919-2.74.293-5.214a4.523,4.523,0,0,0,.819-5.685c-1.1-2.091-1.84-4.375-3.006-6.422a5.626,5.626,0,0,0-2.632-2.235c-2.26-.909-4.052.252-5.481,1.931-3.931,4.618-3.917,9.758-1.449,14.913,4.762,9.948,12.629,16.807,22.5,21.36C1261.219,150.842,1264.648,151.48,1267.912,152.474Zm-12.073-40.186v1.744c10.544,1.175,16.164,7.116,17.332,17.327,1.6.463,2.165-.1,1.917-1.573-.131-.779-.239-1.563-.387-2.339C1273.021,118.633,1264.2,111.506,1255.839,112.288Zm14.5,17.643c-.258-7.785-7.076-14.3-14.237-13.089.754.792,1.169,1.644,1.728,1.752,6.144,1.183,9.384,4.439,10.392,10.619a6.73,6.73,0,0,0,.262.845Zm-12.474-7.823c.445.572.788,1.487,1.353,1.656A5.625,5.625,0,0,1,1263.33,128c.088.327.208.645.331,1.017.607-.044,1.1-.064,1.581-.129.1-.013.181-.194.267-.3C1264.893,124.244,1262.492,121.876,1257.863,122.108Z" transform="translate(-1223.266 -95.734)" fill="#ff0467"/><ellipse cx="11.5" cy="19" rx="11.5" ry="19" transform="translate(19.961 13.936) rotate(-42)" fill="#ff0467"/></g></svg>